<svg width="206" height="272" viewBox="0 0 206 272" fill="none" xmlns="http://www.w3.org/2000/svg">
<path d="M150.443 132.099C128.322 116.538 89.3191 106.087 63.2953 108.748C37.2715 111.41 33.3525 126.036 54.5591 141.352C75.7657 156.669 114.921 167.161 141.707 164.704C168.645 162.287 172.564 147.661 150.443 132.099Z" fill="#263238"/>
<path d="M181.321 97.9159L54.0624 63.9805L23.4904 216.471L23.6428 216.512C22.7825 222.16 26.3814 228.839 34.9891 235.718C53.3418 250.107 87.4696 259.251 111.32 256.171C122.477 254.751 129.279 250.695 131.359 245.374L131.511 245.415L181.321 97.9159Z" fill="white"/>
<path d="M54.0625 63.9824L47.8784 94.9844C50.2425 97.7406 53.216 100.66 57.0329 103.479C81.5475 122.295 126.797 134.42 158.35 130.627C159.691 130.496 160.921 130.173 162.11 130.001C167.252 129.093 171.216 127.706 171.216 127.706L181.28 98.0702L54.0625 63.9824Z" fill="#F0F0F0"/>
<path d="M188.212 104.499L194.335 81.6455L179.557 77.6856C177.862 76.0884 175.974 74.6028 173.822 72.8831C148.393 53.8224 102.991 41.6569 72.5049 45.7353C69.9746 46.0371 67.7082 46.5729 65.4418 47.1087L50.968 43.2304L44.8444 66.0839C42.8441 73.5493 47.6997 82.8518 59.9013 92.1631C84.416 110.979 129.666 123.104 161.218 119.311C177.05 117.511 186.211 111.964 188.212 104.499Z" fill="#047857"/>
<path d="M178.557 55.2098C153.128 36.1491 107.726 23.9836 77.2403 28.062C46.602 32.0997 41.6624 50.5348 66.177 69.3506C90.6917 88.1664 135.941 100.291 167.494 96.4983C199.046 92.7056 203.986 74.2705 178.557 55.2098Z" fill="#047857"/>
<g opacity="0.3">
<path d="M178.557 55.2098C153.128 36.1491 107.726 23.9836 77.2403 28.062C46.602 32.0997 41.6624 50.5348 66.177 69.3506C90.6917 88.1664 135.941 100.291 167.494 96.4983C199.046 92.7056 203.986 74.2705 178.557 55.2098Z" fill="white"/>
</g>
<path d="M177.808 70.1948L177.611 47.7707L82.236 22.2151L70.8536 41.5366C67.1285 46.907 70.4825 54.5007 81.4463 62.3373C100.085 75.6595 134.212 84.804 157.624 82.7492C171.647 81.6077 178.349 76.7083 177.808 70.1948Z" fill="#047857"/>
<path d="M166.452 33.3512C149.244 21.3922 118.926 13.2683 98.6534 15.1847C78.3812 17.101 75.3602 28.3754 91.9583 40.1711C108.556 51.9668 138.875 60.0907 159.757 58.3376C180.638 56.5845 183.659 45.3102 166.452 33.3512Z" fill="#047857"/>
<g opacity="0.3">
<path d="M166.452 33.3512C149.244 21.3922 118.926 13.2683 98.6534 15.1847C78.3812 17.101 75.3602 28.3754 91.9583 40.1711C108.556 51.9668 138.875 60.0907 159.757 58.3376C180.638 56.5845 183.659 45.3102 166.452 33.3512Z" fill="white"/>
</g>
<path d="M170.875 47.9252C170.793 48.2299 170.091 49.0216 168.088 49.7914C166.279 50.4496 163.433 51.32 159.257 51.6706C150.061 52.4724 137.992 51.1981 126.108 48.0138C114.224 44.8296 103.247 40.0919 95.9882 34.8811C92.5467 32.4893 90.6696 30.3534 89.5841 28.9195C88.3871 27.2924 88.175 26.2558 88.2567 25.9511C88.3792 25.494 90.8307 23.0483 99.4174 22.0832C108.309 21.1997 120.184 22.5856 132.068 25.7698C143.952 28.9541 155.082 33.7326 162.604 39.1774C169.833 43.8903 171.038 47.3158 170.875 47.9252Z" fill="#047857"/>
<g opacity="0.1">
<path d="M168.088 49.7925C166.279 50.4507 163.433 51.3211 159.257 51.6717C150.061 52.4735 137.992 51.1992 126.108 48.015C114.224 44.8307 103.247 40.093 95.9883 34.8822C92.5468 32.4905 90.6696 30.3545 89.5842 28.9206C91.2412 28.2215 94.0871 27.3512 98.1111 26.9597C107.002 26.0763 118.878 27.4621 130.762 30.6464C142.646 33.8306 153.776 38.6091 161.298 44.0539C164.821 46.141 166.891 48.1654 168.088 49.7925Z" fill="black"/>
</g>
<path d="M148.922 45.145C152.072 44.3563 155.628 44.4926 156.754 45.7742C157.922 46.9034 156.324 48.5982 153.174 49.387C150.023 50.1757 146.467 50.0394 145.341 48.7578C144.021 47.5878 145.771 45.9337 148.922 45.145Z" fill="#263238"/>
<path d="M30.0314 175.605C28.521 181.242 32.6885 188.238 42.6674 195.484C62.6253 209.976 99.4955 219.855 124.787 217.488C137.509 216.324 144.616 212.35 146.279 206.754L164.357 153.302C162.765 159.243 155.079 163.552 141.554 164.664C114.616 167.08 75.6131 156.63 54.4065 141.313C43.7475 133.558 39.3569 126.176 40.949 120.234L30.0314 175.605Z" fill="#455A64"/>
<path d="M79.6041 192.318C78.206 189.004 78.0784 185.214 77.219 181.718C75.4592 174.878 71.8385 169.498 66.3974 165.428C65.7173 164.919 64.5691 164.938 63.9079 165.577C59.187 171.007 58.6475 180.334 63.3319 188.447C68.0163 196.561 76.2107 200.716 83.2329 199.495C83.5785 199.425 83.9349 198.704 83.6711 198.47C81.9762 196.872 80.5562 194.859 79.6041 192.318Z" fill="#263238"/>
<path d="M70.1984 164.649C73.2236 166.766 75.74 169.564 77.7177 172.543C79.8069 175.715 81.1234 179.334 81.9012 183.135C82.9917 188.816 84.4198 192.628 87.23 196.157C87.8284 196.97 89.0881 197.145 89.7493 196.505C95.5367 191.361 96.6259 181.202 91.4546 172.468C86.6587 164.161 78.1595 159.924 70.8625 161.562C69.328 161.804 68.9496 163.825 70.1984 164.649Z" fill="#263238"/>
</svg>
