<svg width="230" height="274" viewBox="0 0 230 274" fill="none" xmlns="http://www.w3.org/2000/svg">
<path d="M59.4183 69.2494C58.8569 67.6587 57.1726 66.3487 55.4883 67.0973C51.9325 68.688 50.5289 68.8751 46.4118 69.2494C44.0725 69.4365 39.4875 68.5008 37.4289 67.2844C31.4403 63.7287 28.1653 58.3015 27.6974 52.2193C27.5102 49.0378 27.791 45.6693 28.7267 42.5814C37.3353 47.1664 49.4061 45.0143 55.8626 37.5285C60.6347 32.0077 59.5119 25.177 52.4004 22.3698C45.3825 19.5627 35.0896 20.6855 28.8203 24.8027C28.1652 25.2706 27.5102 25.7384 26.8552 26.2063C27.6038 19.4691 30.2238 12.6383 39.1132 8.52117C40.1425 8.05331 41.0782 6.83687 39.7682 6.64973C32.0017 5.71401 25.6388 10.6733 22.3638 17.3169C19.7438 22.557 18.5273 28.5456 20.6795 33.9728C18.9952 37.1542 17.6852 40.8035 16.9366 44.64C15.7202 51.2836 16.9366 60.2665 19.8373 65.413C23.8609 72.4309 30.0367 78.1387 41.8268 79.823C48.3768 80.6652 62.7869 78.7937 59.4183 69.2494ZM45.3825 29.3877C48.6575 29.2942 51.5583 30.6977 49.4997 33.4113C48.2832 35.002 46.5054 35.9378 44.1661 36.8735C40.5168 38.2771 35.5574 37.4349 32.0953 35.6571C35.3703 31.3527 40.0489 29.4813 45.3825 29.3877Z" fill="#FFA8A7"/>
<path d="M20.8666 33.9727C19.5566 36.4055 18.5273 39.1191 17.7787 42.0199C21.0537 46.2306 25.9195 47.6342 27.8845 48.0085C28.0716 46.137 28.3523 44.3591 28.9138 42.5813C23.6737 39.6805 22.2701 37.0605 20.8666 33.9727Z" fill="#F28F8F"/>
<path d="M32.1888 35.6568C32.5631 35.0954 33.031 34.6275 33.4988 34.1597C32.7502 33.7854 31.1595 32.7561 29.5688 30.8847C27.2295 28.1711 27.0424 26.2061 27.0424 26.2061C26.8552 29.4811 29.1945 34.0661 32.1888 35.6568Z" fill="#F28F8F"/>
<path d="M133.902 222.427C133.902 222.333 133.902 222.333 133.902 222.24V222.053C134.557 217.374 131.749 212.508 125.48 208.953C114.158 202.403 95.8178 202.403 84.4956 208.953C78.2262 212.508 75.5126 217.374 76.0741 222.053V222.24C76.0741 222.333 64.0033 220.649 64.0033 220.649L66.8105 223.55C74.2026 231.41 79.162 241.235 80.8463 251.902L82.437 262.101V262.195C82.9984 265.096 85.1506 267.809 88.8935 270.055C97.6892 275.108 112.006 275.108 120.801 270.055C124.638 267.903 126.79 265.096 127.258 262.195V262.101V262.008L133.902 222.427Z" fill="#F28F8F"/>
<path d="M73.3604 187.524C73.3604 187.431 73.3604 187.431 73.3604 187.337V187.15C74.0154 182.471 71.1146 177.793 64.9389 174.05C60.6346 171.43 37.9901 171.43 24.9836 171.43C17.2172 171.43 12.9128 170.681 13.5679 175.36V175.547C13.5679 175.641 4.95923 164.88 4.95923 164.88C11.6964 178.261 16.375 192.577 18.8079 207.362L22.0829 227.199V227.292C22.6443 230.193 24.7965 232.907 28.5394 235.152C37.3351 240.205 51.6516 240.205 60.4474 235.152C64.2839 233 66.4361 230.193 66.9039 227.292V227.199V227.105L73.3604 187.524Z" fill="#F28F8F"/>
<path d="M140.639 199.782C140.639 199.688 140.639 199.688 140.639 199.595V199.408C139.984 194.729 142.884 190.05 149.06 186.308C153.364 183.688 176.009 183.688 189.015 183.688C196.782 183.688 201.086 182.939 200.431 187.618V187.805C200.431 187.898 200.431 187.898 200.431 187.992L192.01 239.55V239.644C191.448 242.544 189.296 245.258 185.553 247.504C176.757 252.557 162.441 252.557 153.645 247.504C149.809 245.351 147.657 242.544 147.189 239.644V239.55V239.456L140.639 199.782Z" fill="#F28F8F"/>
<path d="M134.837 53.3416C122.018 47.8208 107.327 43.9844 92.4492 43.9844C41.4525 43.9844 0.0936279 85.3432 0.0936279 136.34C0.0936279 170.307 20.0245 197.442 45.6632 215.97C56.424 223.736 74.9512 233.936 85.6185 239.269C100.871 246.848 115.281 251.995 132.311 251.995C183.308 251.995 224.666 210.636 224.666 159.639C224.666 126.515 206.888 98.8176 181.904 80.7582C167.588 70.4653 149.06 59.5173 134.837 53.3416Z" fill="#FFA8A7"/>
<path d="M57.0789 202.215C21.428 173.394 0 109.578 28.5395 69.623C10.9479 86.466 0 110.14 0 136.34C0 170.307 19.9308 197.442 45.5696 215.97C56.3303 223.736 74.8576 233.936 85.5248 239.269C100.777 246.848 115.187 251.995 132.217 251.995C159.634 251.995 184.337 240.018 201.273 221.023C149.528 258.264 92.7299 231.035 57.0789 202.215Z" fill="#F49C9C"/>
<path d="M153.365 84.876L167.587 93.1103C181.81 88.9931 198.934 91.5196 209.788 109.86C209.788 109.86 213.531 66.723 208.011 54.8393C208.011 54.8393 205.016 53.155 203.893 52.4065C202.116 51.3772 199.215 51.0029 195.659 51.6579C178.067 54.7458 162.16 69.4366 153.365 84.876Z" fill="#FFBBBA"/>
<path d="M167.587 93.1105C186.021 88.3383 200.15 94.1398 209.788 109.86C209.788 109.86 225.976 47.9152 199.683 53.9974C181.904 58.1146 167.587 93.1105 167.587 93.1105Z" fill="#F28F8F"/>
<path d="M194.349 86.9351C177.225 80.6658 167.587 93.1109 167.587 93.1109C186.021 88.3387 200.15 94.1402 209.788 109.86C209.788 109.86 211.473 93.2044 194.349 86.9351Z" fill="#D46A6A"/>
<path d="M139.048 109.579C123.422 123.802 109.386 141.861 99.0928 168.81L85.4313 160.95C80.2848 155.71 66.9976 111.544 92.6364 95.0751C109.854 84.1272 139.048 109.579 139.048 109.579Z" fill="#FFBBBA"/>
<path d="M139.048 109.578C120.614 126.14 107.701 146.165 99.0928 168.809C99.0928 168.809 70.3662 119.122 96.2856 97.2266C111.351 84.4073 139.048 109.578 139.048 109.578Z" fill="#F28F8F"/>
<path d="M139.048 109.578C139.048 109.578 123.328 109.578 109.853 128.105C97.2212 145.416 99.1862 168.809 99.1862 168.809C107.701 146.165 120.614 126.14 139.048 109.578Z" fill="#D46A6A"/>
<path d="M207.449 155.99C201.928 152.809 194.068 153.37 185.366 158.33C168.617 167.967 155.049 190.612 155.049 208.765C155.049 217.467 158.137 223.549 163.19 226.544C165.622 227.947 175.167 233.468 177.6 234.871C183.12 237.959 190.887 237.398 199.589 232.439C216.339 222.801 229.906 200.156 229.906 182.003C229.906 173.301 226.819 167.219 221.766 164.225C219.426 162.821 209.882 157.394 207.449 155.99Z" fill="#F28F8F"/>
<path d="M199.683 166.564C216.432 156.926 230 163.85 230 182.003C230 200.156 216.432 222.801 199.683 232.438C182.933 242.076 169.365 235.152 169.365 216.999C169.365 198.846 182.933 176.202 199.683 166.564Z" fill="#FFA8A7"/>
<path d="M175.448 230.006C167.775 219.433 172.734 197.35 181.249 183.969C174.044 194.168 169.365 206.239 169.365 216.906C169.365 235.059 182.933 241.983 199.683 232.345C205.203 229.164 210.256 224.673 214.748 219.339C204.174 232.065 183.682 241.328 175.448 230.006Z" fill="#FFBBBA"/>
<path d="M189.016 200.156C192.01 198.472 194.349 199.875 194.349 203.244C194.349 206.613 191.916 210.823 189.016 212.508C186.021 214.192 183.682 212.788 183.682 209.42C183.682 206.051 186.021 201.84 189.016 200.156Z" fill="#F28F8F"/>
<path d="M190.793 201.185C190.793 200.53 190.7 199.969 190.606 199.501C190.138 199.595 189.577 199.782 189.016 200.156C186.021 201.84 183.682 206.051 183.682 209.42C183.682 210.075 183.776 210.636 183.869 211.104C184.337 211.01 184.898 210.823 185.46 210.449C188.361 208.765 190.793 204.554 190.793 201.185Z" fill="#E37B7B"/>
<path d="M210.35 187.805C213.344 186.12 215.683 187.524 215.683 190.892C215.683 194.261 213.251 198.472 210.35 200.156C207.356 201.84 205.016 200.437 205.016 197.068C205.016 193.606 207.449 189.489 210.35 187.805Z" fill="#F28F8F"/>
<path d="M212.128 188.834C212.128 188.179 212.034 187.617 211.941 187.149C211.473 187.243 210.911 187.43 210.35 187.804C207.356 189.489 205.016 193.699 205.016 197.068C205.016 197.723 205.11 198.284 205.203 198.752C205.671 198.659 206.233 198.472 206.794 198.097C209.788 196.413 212.128 192.202 212.128 188.834Z" fill="#E37B7B"/>
<path d="M146.253 170.214C150.181 170.214 153.365 167.03 153.365 163.103C153.365 159.175 150.181 155.991 146.253 155.991C142.326 155.991 139.142 159.175 139.142 163.103C139.142 167.03 142.326 170.214 146.253 170.214Z" fill="#37474F"/>
<path d="M204.719 143.429C207.497 140.652 207.497 136.149 204.719 133.372C201.942 130.595 197.44 130.595 194.662 133.372C191.885 136.149 191.885 140.652 194.662 143.429C197.44 146.206 201.942 146.206 204.719 143.429Z" fill="#37474F"/>
<path d="M121.269 86.9354L89.1741 68.4082L96.2856 64.291L128.381 82.8183L121.269 86.9354Z" fill="#F28F8F"/>
<path d="M96.2855 64.291V68.4082L124.825 84.8769L128.381 82.8183L96.2855 64.291Z" fill="#E37B7B"/>
<path d="M96.2856 64.291V68.4082L92.7298 70.4668L89.1741 68.4082L96.2856 64.291Z" fill="#D46A6A"/>
<path d="M106.859 29.5742C105.456 29.6678 104.239 28.5449 104.239 27.1413L103.21 2.62546C103.116 1.22188 104.239 0.00545285 105.643 0.00545285C107.046 -0.0881192 108.263 1.03474 108.263 2.43832L109.292 26.9542C109.386 28.3578 108.263 29.5742 106.859 29.5742Z" fill="#E0E0E0"/>
<path d="M80.8463 34.6282C80.0041 34.6282 79.1619 34.1604 78.6941 33.3182L67.0912 11.7031C66.4362 10.4867 66.904 8.89594 68.1205 8.24094C69.3369 7.58593 70.9276 8.0538 71.5826 9.27024L83.1856 30.8854C83.8406 32.1018 83.3727 33.6925 82.1563 34.3475C81.6884 34.5347 81.3141 34.6282 80.8463 34.6282Z" fill="#E0E0E0"/>
<path d="M150.932 47.6346C150.089 47.7282 149.154 47.4475 148.592 46.6989C147.75 45.576 147.937 43.9853 149.06 43.1431L168.43 28.0781C169.552 27.2359 171.143 27.423 171.985 28.5459C172.827 29.6688 172.64 31.2595 171.517 32.1016L152.148 47.1667C151.774 47.4475 151.306 47.6346 150.932 47.6346Z" fill="#E0E0E0"/>
<path d="M132.966 33.9726C132.498 34.0662 132.124 33.9726 131.656 33.7855C130.346 33.224 129.691 31.8204 130.252 30.5104L139.422 7.77243C139.984 6.46242 141.387 5.80742 142.697 6.36885C144.007 6.93028 144.663 8.33386 144.101 9.64387L134.931 32.3819C134.65 33.3176 133.808 33.879 132.966 33.9726Z" fill="#E0E0E0"/>
</svg>
